<svg data-v-423bf9ae="" xmlns="http://www.w3.org/2000/svg" viewBox="0 0 47.93013199557409 60" class="icon"><!----><!----><!----><!----><g data-v-423bf9ae="" id="4fe1e163-e7eb-4f74-a421-38eecfebb9df" transform="matrix(1.286090929993645,0,0,1.286090929993645,-6.855180998807043,-7.434891842910972)" stroke="none" fill="black"><path d="M41.212 19.348L26.629 6.754c-.51-.44-1.167-.73-1.845-.872-.029-.006-.055-.016-.084-.022a4.284 4.284 0 0 0-.787-.079c-.256 0-.509.029-.757.077-.097.018-.188.052-.282.077-.147.04-.292.079-.433.134-.103.041-.2.093-.299.143a3.89 3.89 0 0 0-.363.196c-.095.06-.183.129-.273.197-.068.051-.143.093-.208.15L6.715 19.347a3.996 3.996 0 0 0-.411 5.639 4.003 4.003 0 0 0 5.642.41l7.967-6.879v29.919a4 4 0 0 0 4 3.998 4 4 0 0 0 4.001-3.998V18.432l8.067 6.966a3.985 3.985 0 0 0 2.613.973 3.996 3.996 0 0 0 2.617-7.023z"></path></g><!----></svg>